HIERARCHY
ROOT newVegas:Hips
{
	OFFSET 0.000000 96.479958 0.000000
	CHANNELS 6 Xposition Yposition Zposition Xrotation Yrotation Zrotation
	JOINT newVegas:Pelvis
	{
		OFFSET 0.000000 0.000000 0.000000
		CHANNELS 3 Xrotation Yrotation Zrotation
		JOINT newVegas:LeftUpLeg
		{
			OFFSET 18.735201 -5.666702 -4.541200
			CHANNELS 3 Xrotation Yrotation Zrotation
			JOINT newVegas:LeftLeg
			{
				OFFSET -0.021200 -31.938179 0.493100
				CHANNELS 3 Xrotation Yrotation Zrotation
				JOINT newVegas:LeftFoot
				{
					OFFSET 0.021200 -31.938179 -4.336299
					CHANNELS 3 Xrotation Yrotation Zrotation
					JOINT newVegas:LeftToeBase
					{
						OFFSET 0.943001 -26.722000 15.023500
						CHANNELS 3 Xrotation Yrotation Zrotation
						End Site
						{
							OFFSET 0.000000 30.670183 0.000000
						}
					}
				}
				JOINT newVegas:Left_PantLeg
				{
					OFFSET 0.663870 -9.044666 -1.108900
					CHANNELS 3 Xrotation Yrotation Zrotation
					End Site
					{
						OFFSET 1.415995 20.635357 0.000000
					}
				}
			}
		}
		JOINT newVegas:RightUpLeg
		{
			OFFSET -18.735201 -5.666702 -4.541200
			CHANNELS 3 Xrotation Yrotation Zrotation
			JOINT newVegas:RightLeg
			{
				OFFSET 0.018946 -31.938133 0.493100
				CHANNELS 3 Xrotation Yrotation Zrotation
				JOINT newVegas:RightFoot
				{
					OFFSET -0.018946 -31.938126 -4.336299
					CHANNELS 3 Xrotation Yrotation Zrotation
					JOINT newVegas:RightToeBase
					{
						OFFSET -0.943001 -26.722004 15.023500
						CHANNELS 3 Xrotation Yrotation Zrotation
						End Site
						{
							OFFSET 0.000000 30.670187 0.000000
						}
					}
				}
				JOINT newVegas:Right_PantLeg
				{
					OFFSET -0.661674 -9.044716 -1.108900
					CHANNELS 3 Xrotation Yrotation Zrotation
					End Site
					{
						OFFSET -1.415958 20.635269 0.000000
					}
				}
			}
		}
	}
	JOINT newVegas:Spine
	{
		OFFSET 0.000000 10.199997 -0.299500
		CHANNELS 3 Xrotation Yrotation Zrotation
		JOINT newVegas:Spine1
		{
			OFFSET 0.000000 11.900002 -1.516600
			CHANNELS 3 Xrotation Yrotation Zrotation
			JOINT newVegas:Spine2
			{
				OFFSET 0.000000 13.600006 -2.842500
				CHANNELS 3 Xrotation Yrotation Zrotation
				JOINT newVegas:Neck
				{
					OFFSET 0.000000 9.624100 -2.890100
					CHANNELS 3 Xrotation Yrotation Zrotation
					JOINT newVegas:Head
					{
						OFFSET 0.000000 14.068802 -1.351900
						CHANNELS 3 Xrotation Yrotation Zrotation
						JOINT newVegas:Hair_Back
						{
							OFFSET 0.000000 3.231903 -17.524799
							CHANNELS 3 Xrotation Yrotation Zrotation
							End Site
							{
								OFFSET 0.000000 19.849884 0.000000
							}
						}
						JOINT newVegas:Hair_Front
						{
							OFFSET 0.000000 31.260406 4.573800
							CHANNELS 3 Xrotation Yrotation Zrotation
							JOINT newVegas:Hair_Front1
							{
								OFFSET 0.000000 2.284103 11.993300
								CHANNELS 3 Xrotation Yrotation Zrotation
								JOINT newVegas:Hair_Front2
								{
									OFFSET 0.000000 2.284103 11.993300
									CHANNELS 3 Xrotation Yrotation Zrotation
									End Site
									{
										OFFSET 0.000000 12.208862 0.000000
									}
								}
							}
						}
						JOINT newVegas:Jowel
						{
							OFFSET 0.000000 -7.458206 6.864100
							CHANNELS 3 Xrotation Yrotation Zrotation
							End Site
							{
								OFFSET 0.000000 19.849884 0.000000
							}
						}
					}
				}
				JOINT newVegas:LeftShoulder
				{
					OFFSET 15.263000 10.923401 -0.547700
					CHANNELS 3 Xrotation Yrotation Zrotation
					JOINT newVegas:LeftArm
					{
						OFFSET 25.438599 -2.830597 -13.032500
						CHANNELS 3 Xrotation Yrotation Zrotation
						JOINT newVegas:LeftForeArm
						{
							OFFSET 29.960503 0.000000 0.000000
							CHANNELS 3 Xrotation Yrotation Zrotation
							JOINT newVegas:LeftHand
							{
								OFFSET 27.849251 0.000000 0.000000
								CHANNELS 3 Xrotation Yrotation Zrotation
								JOINT newVegas:LeftHandThumb1
								{
									OFFSET 4.487587 -3.305161 6.305391
									CHANNELS 3 Xrotation Yrotation Zrotation
									JOINT newVegas:LeftHandThumb2
									{
										OFFSET 5.480453 -3.164139 3.164143
										CHANNELS 3 Xrotation Yrotation Zrotation
										JOINT newVegas:LeftHandThumb3
										{
											OFFSET 5.159721 -2.978973 2.978967
											CHANNELS 3 Xrotation Yrotation Zrotation
											End Site
											{
												OFFSET 2.494507 5.926697 1.738678
											}
										}
									}
								}
								JOINT newVegas:LeftHandIndex1
								{
									OFFSET 18.578728 -0.527832 5.208049
									CHANNELS 3 Xrotation Yrotation Zrotation
									JOINT newVegas:LeftHandIndex2
									{
										OFFSET 3.192009 0.000000 0.000000
										CHANNELS 3 Xrotation Yrotation Zrotation
										JOINT newVegas:LeftHandIndex3
										{
											OFFSET 3.835129 0.000000 0.000000
											CHANNELS 3 Xrotation Yrotation Zrotation
											End Site
											{
												OFFSET -0.034599 3.816971 0.371180
											}
										}
									}
								}
								JOINT newVegas:LeftHandMiddle1
								{
									OFFSET 18.476105 0.000000 0.000000
									CHANNELS 3 Xrotation Yrotation Zrotation
									JOINT newVegas:LeftHandMiddle2
									{
										OFFSET 3.324875 0.000000 0.000000
										CHANNELS 3 Xrotation Yrotation Zrotation
										JOINT newVegas:LeftHandMiddle3
										{
											OFFSET 4.596550 0.000000 0.000000
											CHANNELS 3 Xrotation Yrotation Zrotation
											End Site
											{
												OFFSET 0.057701 4.578827 0.399218
											}
										}
									}
								}
								JOINT newVegas:LeftHandRing1
								{
									OFFSET 17.732719 0.121887 -4.201567
									CHANNELS 3 Xrotation Yrotation Zrotation
									JOINT newVegas:LeftHandRing2
									{
										OFFSET 2.733170 0.000000 0.000000
										CHANNELS 3 Xrotation Yrotation Zrotation
										JOINT newVegas:LeftHandRing3
										{
											OFFSET 3.178268 0.000000 0.000000
											CHANNELS 3 Xrotation Yrotation Zrotation
											End Site
											{
												OFFSET 0.119102 3.170624 0.185394
											}
										}
									}
								}
								JOINT newVegas:LeftHandPinky1
								{
									OFFSET 15.989624 -0.606689 -7.535461
									CHANNELS 3 Xrotation Yrotation Zrotation
									JOINT newVegas:LeftHandPinky2
									{
										OFFSET 2.538986 0.000000 0.000000
										CHANNELS 3 Xrotation Yrotation Zrotation
										JOINT newVegas:LeftHandPinky3
										{
											OFFSET 2.593102 0.000000 0.000000
											CHANNELS 3 Xrotation Yrotation Zrotation
											End Site
											{
												OFFSET -0.150902 2.584198 0.152708
											}
										}
									}
								}
							}
							JOINT newVegas:Left_Sleeve
							{
								OFFSET 0.267448 -0.649796 0.577675
								CHANNELS 3 Xrotation Yrotation Zrotation
								End Site
								{
									OFFSET 0.000000 15.991241 0.000000
								}
							}
							JOINT newVegas:Left_CapeC
							{
								OFFSET 15.715958 -8.608795 -6.935905
								CHANNELS 3 Xrotation Yrotation Zrotation
								JOINT newVegas:Left_CapeC1
								{
									OFFSET 0.000000 -8.688499 0.000000
									CHANNELS 3 Xrotation Yrotation Zrotation
									End Site
									{
										OFFSET 0.000000 8.688499 0.000000
									}
								}
							}
						}
						JOINT newVegas:Left_CapeB
						{
							OFFSET 26.118385 -8.608795 -7.079235
							CHANNELS 3 Xrotation Yrotation Zrotation
							JOINT newVegas:Left_CapeB1
							{
								OFFSET 0.000000 -8.688499 0.000000
								CHANNELS 3 Xrotation Yrotation Zrotation
								End Site
								{
									OFFSET 0.000000 8.688499 0.000000
								}
							}
						}
						JOINT newVegas:Left_CapeA
						{
							OFFSET 5.115639 -8.608795 -10.395809
							CHANNELS 3 Xrotation Yrotation Zrotation
							JOINT newVegas:Left_CapeA1
							{
								OFFSET 0.000000 -8.688499 0.000000
								CHANNELS 3 Xrotation Yrotation Zrotation
								End Site
								{
									OFFSET 0.000000 8.688499 0.000000
								}
							}
						}
					}
				}
				JOINT newVegas:RightShoulder
				{
					OFFSET -15.263000 10.923401 -0.547700
					CHANNELS 3 Xrotation Yrotation Zrotation
					JOINT newVegas:RightArm
					{
						OFFSET -25.438599 -2.830597 -13.032500
						CHANNELS 3 Xrotation Yrotation Zrotation
						JOINT newVegas:RightForeArm
						{
							OFFSET -29.960503 0.000000 0.000000
							CHANNELS 3 Xrotation Yrotation Zrotation
							JOINT newVegas:RightHand
							{
								OFFSET -27.849251 0.000000 0.000000
								CHANNELS 3 Xrotation Yrotation Zrotation
								JOINT newVegas:RightHandThumb1
								{
									OFFSET -4.487587 -3.305161 6.305391
									CHANNELS 3 Xrotation Yrotation Zrotation
									JOINT newVegas:RightHandThumb2
									{
										OFFSET -5.480453 -3.164139 3.164143
										CHANNELS 3 Xrotation Yrotation Zrotation
										JOINT newVegas:RightHandThumb3
										{
											OFFSET -5.159721 -2.978973 2.978967
											CHANNELS 3 Xrotation Yrotation Zrotation
											End Site
											{
												OFFSET -2.494507 5.926697 1.738678
											}
										}
									}
								}
								JOINT newVegas:RightHandIndex1
								{
									OFFSET -18.578728 -0.527832 5.208049
									CHANNELS 3 Xrotation Yrotation Zrotation
									JOINT newVegas:RightHandIndex2
									{
										OFFSET -3.192009 0.000000 0.000000
										CHANNELS 3 Xrotation Yrotation Zrotation
										JOINT newVegas:RightHandIndex3
										{
											OFFSET -3.835129 0.000000 0.000000
											CHANNELS 3 Xrotation Yrotation Zrotation
											End Site
											{
												OFFSET 0.034599 3.816971 0.371180
											}
										}
									}
								}
								JOINT newVegas:RightHandMiddle1
								{
									OFFSET -18.476105 0.000000 0.000000
									CHANNELS 3 Xrotation Yrotation Zrotation
									JOINT newVegas:RightHandMiddle2
									{
										OFFSET -3.324875 0.000000 0.000000
										CHANNELS 3 Xrotation Yrotation Zrotation
										JOINT newVegas:RightHandMiddle3
										{
											OFFSET -4.596550 0.000000 0.000000
											CHANNELS 3 Xrotation Yrotation Zrotation
											End Site
											{
												OFFSET -0.057701 4.578827 0.399218
											}
										}
									}
								}
								JOINT newVegas:RightHandRing1
								{
									OFFSET -17.732719 0.121887 -4.201567
									CHANNELS 3 Xrotation Yrotation Zrotation
									JOINT newVegas:RightHandRing2
									{
										OFFSET -2.733170 0.000000 0.000000
										CHANNELS 3 Xrotation Yrotation Zrotation
										JOINT newVegas:RightHandRing3
										{
											OFFSET -3.178268 0.000000 0.000000
											CHANNELS 3 Xrotation Yrotation Zrotation
											End Site
											{
												OFFSET -0.119102 3.170624 0.185394
											}
										}
									}
								}
								JOINT newVegas:RightHandPinky1
								{
									OFFSET -15.989624 -0.606689 -7.535461
									CHANNELS 3 Xrotation Yrotation Zrotation
									JOINT newVegas:RightHandPinky2
									{
										OFFSET -2.538986 0.000000 0.000000
										CHANNELS 3 Xrotation Yrotation Zrotation
										JOINT newVegas:RightHandPinky3
										{
											OFFSET -2.593102 0.000000 0.000000
											CHANNELS 3 Xrotation Yrotation Zrotation
											End Site
											{
												OFFSET 0.150902 2.584198 0.152708
											}
										}
									}
								}
							}
							JOINT newVegas:Right_CapeC
							{
								OFFSET -15.715958 -8.608795 -6.935905
								CHANNELS 3 Xrotation Yrotation Zrotation
								JOINT newVegas:Right_CapeC1
								{
									OFFSET 0.000000 -8.688499 0.000000
									CHANNELS 3 Xrotation Yrotation Zrotation
									End Site
									{
										OFFSET 0.000000 8.688499 0.000000
									}
								}
							}
							JOINT newVegas:Right_Sleeve
							{
								OFFSET -0.267448 -0.649994 0.577675
								CHANNELS 3 Xrotation Yrotation Zrotation
								End Site
								{
									OFFSET 0.000000 15.991302 0.000000
								}
							}
						}
						JOINT newVegas:Right_CapeA
						{
							OFFSET -5.115540 -8.608795 -10.395824
							CHANNELS 3 Xrotation Yrotation Zrotation
							JOINT newVegas:Right_CapeA1
							{
								OFFSET 0.000000 -8.688499 0.000000
								CHANNELS 3 Xrotation Yrotation Zrotation
								End Site
								{
									OFFSET 0.000000 8.688499 0.000000
								}
							}
						}
						JOINT newVegas:Right_CapeB
						{
							OFFSET -26.118187 -8.608795 -7.079266
							CHANNELS 3 Xrotation Yrotation Zrotation
							JOINT newVegas:Right_CapeB1
							{
								OFFSET 0.000000 -8.688499 0.000000
								CHANNELS 3 Xrotation Yrotation Zrotation
								End Site
								{
									OFFSET 0.000000 8.688499 0.000000
								}
							}
						}
					}
				}
				JOINT newVegas:Left_Collar
				{
					OFFSET 18.625099 8.655502 8.828100
					CHANNELS 3 Xrotation Yrotation Zrotation
					JOINT newVegas:Left_Collar1
					{
						OFFSET 14.783401 10.540405 -1.259500
						CHANNELS 3 Xrotation Yrotation Zrotation
						End Site
						{
							OFFSET 0.000000 18.199875 0.000000
						}
					}
				}
				JOINT newVegas:Collar_Back
				{
					OFFSET 0.000000 15.630707 -20.132601
					CHANNELS 3 Xrotation Yrotation Zrotation
					End Site
					{
						OFFSET 0.000000 22.523010 0.000000
					}
				}
				JOINT newVegas:Left_Peck
				{
					OFFSET 17.239599 -5.132599 25.482599
					CHANNELS 3 Xrotation Yrotation Zrotation
					End Site
					{
						OFFSET 0.000000 22.523010 0.000000
					}
				}
				JOINT newVegas:Right_Peck
				{
					OFFSET -17.239599 -5.132202 25.482599
					CHANNELS 3 Xrotation Yrotation Zrotation
					End Site
					{
						OFFSET 0.000000 22.523010 0.000000
					}
				}
				JOINT newVegas:Right_Collar
				{
					OFFSET -18.625099 8.655792 8.828100
					CHANNELS 3 Xrotation Yrotation Zrotation
					JOINT newVegas:Right_Collar1
					{
						OFFSET -14.783401 10.539993 -1.259500
						CHANNELS 3 Xrotation Yrotation Zrotation
						End Site
						{
							OFFSET 0.000000 18.199631 0.000000
						}
					}
				}
			}
		}
		JOINT newVegas:Belly
		{
			OFFSET 0.000000 -6.540398 9.014299
			CHANNELS 3 Xrotation Yrotation Zrotation
			End Site
			{
				OFFSET 0.000000 11.566666 0.000000
			}
		}
	}
	JOINT newVegas:ElvisFacialAnim_Joint
	{
		OFFSET 1.000000 -95.330101 -8.825800
		CHANNELS 3 Xrotation Yrotation Zrotation
		End Site
		{
			OFFSET 0.000000 35.315800 0.000000
		}
	}
}
MOTION
Frames: 4
Frame Time: 0.033333
-0.627872 93.658592 4.140900 -4.122045 -8.683021 0.132975 -0.000000 0.000001 -0.000000 -4.390668 1.061651 5.857685 23.111526 -0.539630 -0.872068 -13.449436 12.127365 -5.535382 0.000000 -0.000000 -0.000000 -0.000001 -0.000000 -0.000000 -7.924973 0.844537 -5.706242 28.643641 0.403344 1.038998 -16.452336 -8.559927 4.901368 -0.000000 -0.000000 0.000000 0.000003 -0.000001 -0.000000 3.919557 0.366151 0.057337 7.839847 0.739312 0.000733 7.839854 0.739310 0.000733 0.599800 -0.130401 0.434290 0.599787 -0.130399 0.434289 0.000002 0.000000 -0.000000 0.599718 -0.130395 0.434287 0.599859 -0.130401 0.434291 0.000001 0.000001 -0.000000 0.000002 0.000000 -0.000000 -0.000002 -0.000003 0.000272 5.969082 -20.338691 -70.761334 -2.476645 -78.092859 -1.687707 35.983991 -3.080412 25.180394 -3.906057 -10.571761 -4.374751 3.362331 21.294249 -5.805908 0.000001 -0.000001 -0.000001 -6.060131 2.089266 -7.935219 0.000960 0.388785 -20.165621 -0.000002 0.000000 0.000000 -0.366665 2.216690 -14.010735 -0.361967 -1.778027 -22.312703 -0.000001 -0.000003 0.000000 0.589606 4.760089 -29.201473 -0.495295 -2.160504 -26.280367 0.000002 -0.000001 0.000002 -0.243310 1.425140 -42.036539 -0.050876 -1.051570 -8.727113 -0.000001 -0.000005 -0.000001 0.000001 0.000002 -0.000002 0.000001 0.000002 -0.000002 -0.000000 0.000002 -0.000001 0.000002 0.000000 -0.000000 0.000002 0.000000 -0.000000 0.000002 0.000000 -0.000000 0.000001 0.000000 -0.000001 -0.000003 -0.000009 0.000285 11.806347 5.188322 74.110619 38.354873 90.434696 -39.048410 30.665825 5.428230 -21.958583 5.298240 5.629954 13.559350 3.502687 -12.177775 1.610968 0.000000 0.000001 0.000001 -6.047913 -7.019811 17.997084 0.038852 -0.396179 8.961960 -0.000002 0.000001 -0.000001 -1.870300 -1.739487 22.875280 -0.286913 1.370490 22.743676 -0.000000 -0.000004 0.000002 2.148068 -4.544642 19.698824 -2.579745 4.917330 52.752256 -0.000000 0.000001 -0.000003 3.022045 1.977972 33.370361 -2.084465 6.099856 37.911477 -0.000000 0.000002 -0.000000 -0.000000 -0.000000 0.000000 0.000001 0.000001 -0.000000 -0.000000 -0.000000 0.000000 -0.000000 0.000000 -0.000000 -0.000001 0.000001 0.000001 -0.000000 0.000000 -0.000000 -0.000001 0.000001 0.000001 0.000001 -0.000000 0.000000 0.000001 -0.000000 0.000000 0.000001 -0.000000 0.000000 0.000001 -0.000000 0.000000 0.000001 -0.000000 0.000000 0.000001 -0.000000 0.000000 0.000001 -0.000000 0.000000 -0.000000 -0.000001 0.000000 -0.000000 0.000001 -0.000000 
-0.632524 93.646408 4.110899 -4.120490 -8.683523 0.142560 0.000000 -0.000000 0.000000 -4.455556 1.057310 5.863720 23.183848 -0.539448 -0.874997 -13.456743 12.112338 -5.546330 0.000000 -0.000000 -0.000000 -0.000000 0.000000 -0.000000 -8.011005 0.811652 -5.722821 28.747214 0.405356 1.042958 -16.476223 -8.517252 4.892230 -0.000000 -0.000002 0.000000 0.000001 0.000000 -0.000001 3.920383 0.362201 0.058475 7.841487 0.731527 0.001980 7.841481 0.731527 0.001980 0.599307 -0.130079 0.435279 0.599301 -0.130079 0.435279 -0.000001 -0.000000 -0.000000 0.599226 -0.130077 0.435279 0.599449 -0.130085 0.435282 -0.000000 0.000000 -0.000000 -0.000001 -0.000000 -0.000000 0.000010 -0.000038 0.000277 5.953069 -20.313483 -70.746765 -2.472543 -78.143142 -1.685686 36.014590 -3.025325 25.103039 -4.015745 -10.614943 -4.347283 3.353603 21.317768 -5.806070 -0.000002 0.000001 -0.000004 -6.062754 2.072463 -7.956073 0.000776 0.388347 -20.138340 0.000004 -0.000000 0.000001 -0.367352 2.212874 -13.951443 -0.359414 -1.772062 -22.231332 -0.000001 0.000001 -0.000001 0.600387 4.778673 -29.204899 -0.496137 -2.162210 -26.302555 0.000000 -0.000006 0.000001 -0.249697 1.418096 -42.063150 -0.051028 -1.052511 -8.735939 -0.000001 -0.000003 0.000001 -0.000002 -0.000001 0.000002 -0.000002 -0.000001 0.000002 -0.000003 -0.000001 0.000003 0.000001 0.000000 0.000001 0.000001 0.000000 0.000002 0.000001 0.000000 0.000001 0.000001 -0.000000 0.000001 0.006192 -0.012681 -0.025066 11.796112 5.208849 74.106473 33.248797 90.486647 -33.940054 30.666183 5.418922 -21.892548 5.292273 5.738281 13.578472 3.475723 -12.270968 1.643006 0.000001 -0.000001 -0.000004 -6.037165 -7.047611 18.011803 0.038497 -0.394088 8.910329 0.000000 -0.000002 0.000001 -1.872180 -1.734948 22.858043 -0.285252 1.367002 22.677439 -0.000001 -0.000003 -0.000001 2.148542 -4.544600 19.707264 -2.580110 4.917600 52.756504 0.000000 0.000002 0.000000 3.027680 1.971278 33.358159 -2.094549 6.111364 38.008835 0.000001 0.000001 0.000002 -0.000001 -0.000001 0.000000 0.000000 0.000000 0.000000 -0.000001 -0.000001 0.000000 0.000000 0.000000 0.000000 0.000000 0.000001 -0.000000 0.000000 0.000000 0.000000 0.000000 0.000001 0.000000 0.000002 -0.000000 -0.000000 0.000002 -0.000000 -0.000000 0.000002 -0.000000 -0.000000 0.000002 -0.000000 -0.000000 0.000002 -0.000000 -0.000000 0.000002 -0.000000 -0.000000 0.000002 -0.000000 -0.000000 0.000000 0.000000 0.000000 0.000000 -0.000000 0.000000 
-0.636285 93.637573 4.084565 -4.115416 -8.681695 0.150968 0.000000 -0.000000 0.000000 -4.511083 1.048721 5.868960 23.235373 -0.539065 -0.877013 -13.456198 12.099220 -5.556699 -0.000000 0.000000 -0.000000 -0.000000 0.000000 0.000000 -8.084111 0.788879 -5.735543 28.825301 0.406830 1.045897 -16.491968 -8.481842 4.883349 -0.000000 -0.000001 -0.000000 -0.000001 0.000001 -0.000000 3.918476 0.357541 0.059950 7.837659 0.722360 0.004230 7.837662 0.722360 0.004230 0.599249 -0.129930 0.435119 0.599250 -0.129929 0.435118 0.000000 0.000001 -0.000000 0.599175 -0.129925 0.435116 0.599317 -0.129935 0.435118 -0.000001 -0.000000 -0.000000 0.000000 0.000001 0.000000 -0.000715 -0.002027 -0.006120 5.947288 -20.288927 -70.716213 -2.466585 -78.193262 -1.681871 36.047918 -2.984869 25.035896 -4.117339 -10.689657 -4.332447 3.360337 21.294756 -5.801857 0.000002 -0.000003 -0.000006 -6.064381 2.064759 -7.917128 0.000396 0.387509 -20.088367 0.000002 -0.000001 0.000003 -0.365090 2.220241 -13.877163 -0.357198 -1.766959 -22.161087 -0.000001 0.000006 -0.000004 0.598303 4.779465 -29.160755 -0.497353 -2.164662 -26.334713 0.000001 -0.000001 0.000000 -0.268306 1.398243 -42.054499 -0.051298 -1.054109 -8.750101 -0.000001 -0.000005 -0.000002 -0.000001 0.000005 0.000001 -0.000001 0.000005 0.000001 -0.000002 0.000005 0.000002 -0.000001 0.000000 0.000001 -0.000001 0.000000 -0.000000 -0.000001 0.000000 0.000001 -0.000001 -0.000000 0.000001 0.014005 -0.028888 -0.056739 11.787712 5.245559 74.110264 30.208243 90.528543 -30.898321 30.652383 5.379209 -21.892932 5.300843 5.740634 13.583836 3.509118 -12.150094 1.596295 -0.000000 0.000000 -0.000007 -6.032628 -7.052870 18.050969 0.038953 -0.396663 8.975026 0.000002 0.000001 0.000002 -1.869962 -1.739904 22.837815 -0.283581 1.363540 22.611194 0.000000 0.000000 -0.000002 2.156677 -4.566197 19.709281 -2.577121 4.915324 52.721503 0.000002 -0.000001 -0.000001 3.027655 1.972312 33.353347 -2.087646 6.103469 37.942244 -0.000002 0.000001 0.000001 0.000000 0.000003 -0.000000 0.000001 0.000001 -0.000000 0.000000 0.000002 -0.000000 -0.000000 -0.000002 -0.000001 -0.000001 -0.000001 0.000000 -0.000000 -0.000002 -0.000001 -0.000001 -0.000001 -0.000000 0.000000 0.000000 0.000000 0.000000 0.000000 0.000000 0.000000 0.000000 0.000000 0.000000 0.000000 0.000000 0.000000 0.000000 0.000000 0.000000 0.000000 0.000000 0.000000 0.000000 0.000000 0.000000 0.000000 -0.000000 0.000000 -0.000000 0.000000 
-0.640725 93.631996 4.061874 -4.104971 -8.679654 0.156812 0.000000 0.000001 0.000000 -4.558216 1.040702 5.874425 23.268224 -0.538544 -0.878214 -13.450373 12.095234 -5.565286 0.000000 0.000000 -0.000000 0.000001 0.000000 -0.000000 -8.143087 0.776418 -5.738485 28.876018 0.407333 1.047747 -16.501373 -8.465488 4.870596 -0.000000 -0.000001 0.000000 -0.000001 0.000001 -0.000000 3.913759 0.353078 0.061536 7.828218 0.713549 0.007081 7.828217 0.713548 0.007082 0.599193 -0.129973 0.434225 0.599205 -0.129975 0.434225 0.000001 0.000001 -0.000001 0.599202 -0.129974 0.434225 0.599349 -0.129983 0.434228 -0.000002 -0.000000 -0.000000 0.000001 0.000001 -0.000000 -0.001200 -0.003574 -0.011055 5.945344 -20.256480 -70.683702 -2.461850 -78.248143 -1.679277 36.055657 -2.952743 24.988602 -4.190508 -10.737494 -4.320770 3.350925 21.320340 -5.802249 0.000001 0.000001 -0.000008 -6.063980 2.068961 -7.923947 0.000133 0.386884 -20.051755 -0.000001 -0.000005 0.000003 -0.367093 2.212208 -13.857924 -0.355789 -1.763584 -22.115116 -0.000002 -0.000001 -0.000003 0.592579 4.768755 -29.167524 -0.498423 -2.166877 -26.363560 -0.000000 -0.000000 -0.000003 -0.283781 1.381656 -42.064669 -0.051918 -1.058051 -8.783985 -0.000000 -0.000002 -0.000002 0.000001 -0.000003 0.000002 0.000001 -0.000003 0.000002 -0.000000 -0.000002 0.000002 0.000000 0.000002 0.000002 0.000000 0.000002 -0.000001 0.000000 0.000002 0.000002 0.000000 0.000001 0.000001 0.022102 -0.045788 -0.088830 11.785904 5.277431 74.127039 27.625214 90.574394 -28.314177 30.634372 5.316048 -21.926132 5.328829 5.721958 13.595892 3.509745 -12.145436 1.592345 0.000002 0.000004 -0.000004 -6.031876 -7.049621 18.080255 0.038587 -0.394556 8.922077 -0.000004 -0.000001 0.000002 -1.868411 -1.744380 22.856647 -0.281924 1.360054 22.544969 -0.000001 -0.000001 -0.000001 2.159814 -4.575081 19.703566 -2.572352 4.911770 52.665932 0.000000 0.000004 0.000002 3.028575 1.972596 33.341893 -2.088887 6.104883 37.954227 0.000000 0.000002 -0.000002 -0.000000 0.000003 -0.000000 -0.000000 0.000001 0.000000 -0.000000 0.000002 -0.000000 0.000000 0.000001 0.000000 -0.000000 0.000002 0.000001 0.000000 0.000001 0.000000 -0.000000 0.000002 0.000001 0.000001 0.000000 0.000000 0.000001 0.000000 0.000000 0.000001 0.000000 0.000000 0.000001 0.000000 0.000000 0.000001 0.000000 0.000000 0.000001 0.000000 0.000000 0.000001 0.000000 0.000000 -0.000000 0.000001 -0.000000 0.000000 0.000001 0.000000 
